<svg width="43" height="43" viewBox="0 0 43 43" fill="none" xmlns="http://www.w3.org/2000/svg">
<path d="M14.9604 5.37497C17.0746 5.07039 19.3142 7.38164 19.9592 10.5708C20.6042 13.7421 19.4396 16.5729 17.3254 16.8954C15.2292 17.2179 12.9717 14.9066 12.3087 11.7175C11.6458 8.54622 12.8462 5.71539 14.9604 5.37497ZM27.7708 5.37497C29.9029 5.71539 31.0854 8.54622 30.4583 11.7175C29.7775 14.9066 27.5379 17.2179 25.4237 16.8954C23.2917 16.5729 22.1271 13.7421 22.79 10.5708C23.435 7.38164 25.6746 5.07039 27.7708 5.37497ZM5.375 13.6166C7.4175 12.7387 10.1946 14.3333 11.6458 17.1104C13.0075 19.9412 12.5417 22.9154 10.5171 23.7933C8.4925 24.6712 5.73333 23.0946 4.31791 20.2816C2.9025 17.4687 3.40416 14.4766 5.375 13.6166ZM37.625 13.6166C39.5958 14.4766 40.0975 17.4687 38.6821 20.2816C37.2667 23.0946 34.5075 24.6712 32.4829 23.7933C30.4583 22.9154 29.9925 19.9412 31.3542 17.1104C32.8054 14.3333 35.5825 12.7387 37.625 13.6166ZM34.6329 32.9308C34.7046 34.615 33.4146 36.4783 31.8737 37.1771C28.6667 38.6462 24.8683 35.6004 21.3029 35.6004C17.7375 35.6004 13.9033 38.7716 10.75 37.1771C8.95833 36.2991 7.72208 33.97 7.955 32.035C8.2775 29.3654 11.4846 27.9321 13.3837 25.9791C15.91 23.4529 17.7017 18.705 21.3029 18.705C24.8862 18.705 26.7854 23.3812 29.2042 25.9791C31.1929 28.165 34.5075 30.0104 34.6329 32.9308Z" fill="#EE6551"/>
</svg>
