<svg width="189" height="43" viewBox="0 0 189 43" fill="none" xmlns="http://www.w3.org/2000/svg">
<path d="M52.9389 30V12.5455H64.4957V15.5881H56.6293V19.7472H63.7287V22.7898H56.6293V30H52.9389ZM71.8636 30.2557C70.5398 30.2557 69.3949 29.9744 68.429 29.4119C67.4688 28.8437 66.7273 28.054 66.2045 27.0426C65.6818 26.0256 65.4205 24.8466 65.4205 23.5057C65.4205 22.1534 65.6818 20.9716 66.2045 19.9602C66.7273 18.9432 67.4688 18.1534 68.429 17.5909C69.3949 17.0227 70.5398 16.7386 71.8636 16.7386C73.1875 16.7386 74.3295 17.0227 75.2898 17.5909C76.2557 18.1534 77 18.9432 77.5227 19.9602C78.0455 20.9716 78.3068 22.1534 78.3068 23.5057C78.3068 24.8466 78.0455 26.0256 77.5227 27.0426C77 28.054 76.2557 28.8437 75.2898 29.4119C74.3295 29.9744 73.1875 30.2557 71.8636 30.2557ZM71.8807 27.4432C72.483 27.4432 72.9858 27.2727 73.3892 26.9318C73.7926 26.5852 74.0966 26.1136 74.3011 25.517C74.5114 24.9205 74.6165 24.2415 74.6165 23.4801C74.6165 22.7188 74.5114 22.0398 74.3011 21.4432C74.0966 20.8466 73.7926 20.375 73.3892 20.0284C72.9858 19.6818 72.483 19.5085 71.8807 19.5085C71.2727 19.5085 70.7614 19.6818 70.3466 20.0284C69.9375 20.375 69.6278 20.8466 69.4176 21.4432C69.2131 22.0398 69.1108 22.7188 69.1108 23.4801C69.1108 24.2415 69.2131 24.9205 69.4176 25.517C69.6278 26.1136 69.9375 26.5852 70.3466 26.9318C70.7614 27.2727 71.2727 27.4432 71.8807 27.4432ZM86.5824 30.2557C85.2415 30.2557 84.0881 29.9716 83.1222 29.4034C82.1619 28.8295 81.4233 28.0341 80.9062 27.017C80.3949 26 80.1392 24.8295 80.1392 23.5057C80.1392 22.1648 80.3977 20.9886 80.9148 19.9773C81.4375 18.9602 82.179 18.1676 83.1392 17.5994C84.0994 17.0256 85.2415 16.7386 86.5653 16.7386C87.7074 16.7386 88.7074 16.946 89.5653 17.3608C90.4233 17.7756 91.1023 18.358 91.6023 19.108C92.1023 19.858 92.3778 20.7386 92.429 21.75H89.0028C88.9063 21.0966 88.6506 20.571 88.2358 20.1733C87.8267 19.7699 87.2898 19.5682 86.625 19.5682C86.0625 19.5682 85.571 19.7216 85.1506 20.0284C84.7358 20.3295 84.4119 20.7699 84.179 21.3494C83.946 21.929 83.8295 22.6307 83.8295 23.4545C83.8295 24.2898 83.9432 25 84.1705 25.5852C84.4034 26.1705 84.7301 26.6165 85.1506 26.9233C85.571 27.2301 86.0625 27.3835 86.625 27.3835C87.0398 27.3835 87.4119 27.2983 87.7415 27.1278C88.0767 26.9574 88.3523 26.7102 88.5682 26.3864C88.7898 26.0568 88.9347 25.6619 89.0028 25.2017H92.429C92.3722 26.2017 92.0994 27.0824 91.6108 27.8438C91.1278 28.5994 90.4602 29.1903 89.608 29.6165C88.7557 30.0426 87.7472 30.2557 86.5824 30.2557ZM94.7536 30V16.9091H98.3842V30H94.7536ZM96.5774 15.2216C96.0376 15.2216 95.5746 15.0426 95.1882 14.6847C94.8075 14.321 94.6172 13.8864 94.6172 13.3807C94.6172 12.8807 94.8075 12.4517 95.1882 12.0938C95.5746 11.7301 96.0376 11.5483 96.5774 11.5483C97.1172 11.5483 97.5774 11.7301 97.9581 12.0938C98.3445 12.4517 98.5376 12.8807 98.5376 13.3807C98.5376 13.8864 98.3445 14.321 97.9581 14.6847C97.5774 15.0426 97.1172 15.2216 96.5774 15.2216ZM104.923 22.4318V30H101.293V16.9091H104.753V19.2188H104.906C105.196 18.4574 105.682 17.8551 106.364 17.4119C107.045 16.9631 107.872 16.7386 108.844 16.7386C109.753 16.7386 110.545 16.9375 111.222 17.3352C111.898 17.733 112.423 18.3011 112.798 19.0398C113.173 19.7727 113.361 20.6477 113.361 21.6648V30H109.73V22.3125C109.736 21.5114 109.531 20.8864 109.116 20.4375C108.702 19.983 108.131 19.7557 107.403 19.7557C106.915 19.7557 106.483 19.8608 106.108 20.071C105.739 20.2812 105.449 20.5881 105.239 20.9915C105.034 21.3892 104.929 21.8693 104.923 22.4318ZM119.853 22.4318V30H116.222V12.5455H119.751V19.2188H119.904C120.2 18.446 120.677 17.8409 121.336 17.4034C121.995 16.9602 122.822 16.7386 123.816 16.7386C124.725 16.7386 125.518 16.9375 126.194 17.3352C126.876 17.7273 127.404 18.2926 127.779 19.0312C128.16 19.7642 128.347 20.642 128.342 21.6648V30H124.711V22.3125C124.717 21.5057 124.512 20.8778 124.097 20.429C123.688 19.9801 123.114 19.7557 122.376 19.7557C121.881 19.7557 121.444 19.8608 121.063 20.071C120.688 20.2812 120.393 20.5881 120.177 20.9915C119.967 21.3892 119.859 21.8693 119.853 22.4318ZM134.932 30.2472C134.097 30.2472 133.352 30.1023 132.699 29.8125C132.045 29.517 131.528 29.0824 131.148 28.5085C130.773 27.929 130.585 27.2074 130.585 26.3438C130.585 25.6165 130.719 25.0057 130.986 24.5114C131.253 24.017 131.616 23.6193 132.077 23.3182C132.537 23.017 133.06 22.7898 133.645 22.6364C134.236 22.483 134.855 22.375 135.503 22.3125C136.264 22.233 136.878 22.1591 137.344 22.0909C137.81 22.017 138.148 21.9091 138.358 21.767C138.568 21.625 138.673 21.4148 138.673 21.1364V21.0852C138.673 20.5455 138.503 20.1278 138.162 19.8324C137.827 19.5369 137.349 19.3892 136.73 19.3892C136.077 19.3892 135.557 19.5341 135.17 19.8239C134.784 20.108 134.528 20.4659 134.403 20.8977L131.045 20.625C131.216 19.8295 131.551 19.142 132.051 18.5625C132.551 17.9773 133.196 17.5284 133.986 17.2159C134.781 16.8977 135.702 16.7386 136.747 16.7386C137.474 16.7386 138.17 16.8239 138.835 16.9943C139.506 17.1648 140.099 17.429 140.616 17.7869C141.139 18.1449 141.551 18.6051 141.852 19.1676C142.153 19.7244 142.304 20.392 142.304 21.1705V30H138.861V28.1847H138.759C138.548 28.5938 138.267 28.9545 137.915 29.267C137.562 29.5739 137.139 29.8153 136.645 29.9915C136.151 30.1619 135.58 30.2472 134.932 30.2472ZM135.972 27.7415C136.506 27.7415 136.977 27.6364 137.386 27.4261C137.795 27.2102 138.116 26.9205 138.349 26.5568C138.582 26.1932 138.699 25.7812 138.699 25.321V23.9318C138.585 24.0057 138.429 24.0739 138.23 24.1364C138.037 24.1932 137.818 24.2472 137.574 24.2983C137.33 24.3437 137.085 24.3864 136.841 24.4261C136.597 24.4602 136.375 24.4915 136.176 24.5199C135.75 24.5824 135.378 24.6818 135.06 24.8182C134.741 24.9545 134.494 25.1392 134.318 25.3722C134.142 25.5994 134.054 25.8835 134.054 26.2244C134.054 26.7188 134.233 27.0966 134.591 27.358C134.955 27.6136 135.415 27.7415 135.972 27.7415ZM148.751 22.4318V30H145.121V16.9091H148.581V19.2188H148.734C149.024 18.4574 149.51 17.8551 150.192 17.4119C150.874 16.9631 151.7 16.7386 152.672 16.7386C153.581 16.7386 154.374 16.9375 155.05 17.3352C155.726 17.733 156.251 18.3011 156.626 19.0398C157.001 19.7727 157.189 20.6477 157.189 21.6648V30H153.558V22.3125C153.564 21.5114 153.359 20.8864 152.945 20.4375C152.53 19.983 151.959 19.7557 151.232 19.7557C150.743 19.7557 150.311 19.8608 149.936 20.071C149.567 20.2812 149.277 20.5881 149.067 20.9915C148.862 21.3892 148.757 21.8693 148.751 22.4318ZM164.874 30.2131C163.88 30.2131 162.979 29.9574 162.173 29.446C161.371 28.929 160.735 28.1705 160.263 27.1705C159.798 26.1648 159.565 24.9318 159.565 23.4716C159.565 21.9716 159.806 20.7244 160.289 19.7301C160.772 18.7301 161.414 17.983 162.215 17.4886C163.022 16.9886 163.906 16.7386 164.866 16.7386C165.599 16.7386 166.21 16.8636 166.698 17.1136C167.192 17.358 167.59 17.6648 167.891 18.0341C168.198 18.3977 168.431 18.7557 168.59 19.108H168.701V12.5455H172.323V30H168.744V27.9034H168.59C168.42 28.267 168.178 28.6278 167.866 28.9858C167.559 29.3381 167.158 29.6307 166.664 29.8636C166.175 30.0966 165.579 30.2131 164.874 30.2131ZM166.025 27.3239C166.61 27.3239 167.104 27.1648 167.508 26.8466C167.917 26.5227 168.229 26.071 168.445 25.4915C168.667 24.9119 168.778 24.233 168.778 23.4545C168.778 22.6761 168.67 22 168.454 21.4261C168.238 20.8523 167.925 20.4091 167.516 20.0966C167.107 19.7841 166.61 19.6278 166.025 19.6278C165.428 19.6278 164.925 19.7898 164.516 20.1136C164.107 20.4375 163.798 20.8864 163.587 21.4602C163.377 22.0341 163.272 22.6989 163.272 23.4545C163.272 24.2159 163.377 24.8892 163.587 25.4744C163.803 26.054 164.113 26.5085 164.516 26.8381C164.925 27.1619 165.428 27.3239 166.025 27.3239ZM181.223 30.2557C179.899 30.2557 178.754 29.9744 177.788 29.4119C176.828 28.8437 176.087 28.054 175.564 27.0426C175.041 26.0256 174.78 24.8466 174.78 23.5057C174.78 22.1534 175.041 20.9716 175.564 19.9602C176.087 18.9432 176.828 18.1534 177.788 17.5909C178.754 17.0227 179.899 16.7386 181.223 16.7386C182.547 16.7386 183.689 17.0227 184.649 17.5909C185.615 18.1534 186.359 18.9432 186.882 19.9602C187.405 20.9716 187.666 22.1534 187.666 23.5057C187.666 24.8466 187.405 26.0256 186.882 27.0426C186.359 28.054 185.615 28.8437 184.649 29.4119C183.689 29.9744 182.547 30.2557 181.223 30.2557ZM181.24 27.4432C181.842 27.4432 182.345 27.2727 182.749 26.9318C183.152 26.5852 183.456 26.1136 183.661 25.517C183.871 24.9205 183.976 24.2415 183.976 23.4801C183.976 22.7188 183.871 22.0398 183.661 21.4432C183.456 20.8466 183.152 20.375 182.749 20.0284C182.345 19.6818 181.842 19.5085 181.24 19.5085C180.632 19.5085 180.121 19.6818 179.706 20.0284C179.297 20.375 178.987 20.8466 178.777 21.4432C178.572 22.0398 178.47 22.7188 178.47 23.4801C178.47 24.2415 178.572 24.9205 178.777 25.517C178.987 26.1136 179.297 26.5852 179.706 26.9318C180.121 27.2727 180.632 27.4432 181.24 27.4432Z" fill="#EE6551"/>
<path d="M14.9604 5.37497C17.0746 5.07039 19.3142 7.38164 19.9592 10.5708C20.6042 13.7421 19.4396 16.5729 17.3254 16.8954C15.2292 17.2179 12.9717 14.9066 12.3087 11.7175C11.6458 8.54622 12.8462 5.71539 14.9604 5.37497ZM27.7708 5.37497C29.9029 5.71539 31.0854 8.54622 30.4583 11.7175C29.7775 14.9066 27.5379 17.2179 25.4237 16.8954C23.2917 16.5729 22.1271 13.7421 22.79 10.5708C23.435 7.38164 25.6746 5.07039 27.7708 5.37497ZM5.375 13.6166C7.4175 12.7387 10.1946 14.3333 11.6458 17.1104C13.0075 19.9412 12.5417 22.9154 10.5171 23.7933C8.4925 24.6712 5.73333 23.0946 4.31791 20.2816C2.9025 17.4687 3.40416 14.4766 5.375 13.6166ZM37.625 13.6166C39.5958 14.4766 40.0975 17.4687 38.6821 20.2816C37.2667 23.0946 34.5075 24.6712 32.4829 23.7933C30.4583 22.9154 29.9925 19.9412 31.3542 17.1104C32.8054 14.3333 35.5825 12.7387 37.625 13.6166ZM34.6329 32.9308C34.7046 34.615 33.4146 36.4783 31.8737 37.1771C28.6667 38.6462 24.8683 35.6004 21.3029 35.6004C17.7375 35.6004 13.9033 38.7716 10.75 37.1771C8.95833 36.2991 7.72208 33.97 7.955 32.035C8.2775 29.3654 11.4846 27.9321 13.3837 25.9791C15.91 23.4529 17.7017 18.705 21.3029 18.705C24.8862 18.705 26.7854 23.3812 29.2042 25.9791C31.1929 28.165 34.5075 30.0104 34.6329 32.9308Z" fill="#EE6551"/>
</svg>
